<svg t="1717329542266" class="icon" viewBox="0 0 1024 1024" version="1.1" xmlns="http://www.w3.org/2000/svg" p-id="2044" width="200" height="200"><path d="M886.9 218.6h50.5V865h-50.5z" fill="#FFBE92" p-id="2045"></path><path d="M932.1 198.4l-19.9-45.6-19.9 45.6h39.8z m-19.9 727.2c13.9 0 25.3-11.3 25.3-25.3v-15.1H887v15.1c-0.1 14 11.2 25.3 25.2 25.3z m25.2-60.6V218.6h-50.5V865h50.5z m-25.2 80.8c-25 0-45.5-20.4-45.5-45.5V208.5c0-1.6 0.5-3.1 1.2-4.5 0.1-0.3 0.1-0.7 0.3-1l30-68.8c2.4-5.5 7.9-9 13.9-9s11.4 3.5 13.8 9l30.1 68.9c0.1 0.2 0.2 0.6 0.3 0.9 0.7 1.3 1.2 2.8 1.2 4.5v691.9c0.1 25-20.3 45.4-45.3 45.4z" fill="#4F5953" p-id="2046"></path><path d="M796 188.7v736.4c-160.3-79.3-261.8-37.6-343.4 0.6V140.4C567.1 111 672.9 96.1 796 188.7zM432.4 140.4v785.4c-47.6-22.2-101.9-45.7-170.7-45.7-49.2 0-105.8 12-172.7 45V188.7c123.1-92.6 228.9-77.7 343.4-48.3z" fill="#99E7FF" p-id="2047"></path><path d="M796 925.1V188.7C672.9 96.1 567.1 111 452.6 140.4v785.4c81.6-38.2 183.1-79.9 343.4-0.7z m-534.3-45c68.8 0 123.1 23.4 170.7 45.7V140.4C317.9 111 212.1 96.1 89 188.7v736.4c66.9-33 123.5-45 172.7-45zM72.8 175.8c133.8-103 246.7-85.6 369.8-53.6 122.9-31.9 235.9-49.4 369.8 53.6 2.4 1.8 3.9 4.8 3.9 8v757.9c0 3.5-1.9 6.9-4.9 8.7-1.5 0.9-3.3 1.4-5.2 1.4-1.6 0-3.2-0.4-4.7-1.2-166.8-88.3-264.2-42.3-350.2-1.8l-3 1.4c-1.5 0.7-3.4 1-5.3 0.9-2.1 0.2-4.2 0-6.2-0.9l-2.9-1.4c-86-40.5-183.4-86.5-350.2 1.8-1.5 0.8-3.1 1.2-4.7 1.2-1.8 0-3.6-0.5-5.3-1.4-3-1.8-4.8-5.2-4.8-8.7V183.8c-0.1-3.1 1.3-6.2 3.9-8z" fill="#4F5953" p-id="2048"></path></svg>